HIERARCHY
ROOT Hips
{
	OFFSET -3.958830 18.904000 13.208200
	CHANNELS 6 Xposition Yposition Zposition Zrotation Yrotation Xrotation 
	JOINT LHipJoint
	{
		OFFSET 0.000000 0.000000 0.000000
		CHANNELS 3 Zrotation Yrotation Xrotation
		JOINT LeftUpLeg
		{
			OFFSET 1.800000 -1.400000 0.085000
			CHANNELS 3 Zrotation Yrotation Xrotation
			JOINT LeftLeg
			{
				OFFSET 2.215000 -6.000000 0.000000
				CHANNELS 3 Zrotation Yrotation Xrotation
				JOINT LeftFoot
				{
					OFFSET 2.500000 -6.900000 0.000000
					CHANNELS 3 Zrotation Yrotation Xrotation
					JOINT LeftToeBase
					{
						OFFSET 0.200000 -0.500000 1.950000
						CHANNELS 3 Zrotation Yrotation Xrotation
						End Site
						{
							OFFSET 0.000000 0.000000 0.000000
						}
					}
				}
			}
		}
	}
	JOINT RHipJoint
	{
		OFFSET 0.000000 0.000000 0.000000
		CHANNELS 3 Zrotation Yrotation Xrotation
		JOINT RightUpLeg
		{
			OFFSET -1.800000 -1.400000 0.085000
			CHANNELS 3 Zrotation Yrotation Xrotation
			JOINT RightLeg
			{
				OFFSET -2.215000 -6.000000 0.000000
				CHANNELS 3 Zrotation Yrotation Xrotation
				JOINT RightFoot
				{
					OFFSET -2.500000 -6.900000 0.000000
					CHANNELS 3 Zrotation Yrotation Xrotation
					JOINT RightToeBase
					{
						OFFSET -0.200000 -0.500000 1.950000
						CHANNELS 3 Zrotation Yrotation Xrotation
						End Site
						{
							OFFSET 0.000000 0.000000 0.000000
						}
					}
				}
			}
		}
	}
	JOINT LowerBack
	{
		OFFSET 0.000000 0.000000 0.000000
		CHANNELS 3 Zrotation Yrotation Xrotation
		JOINT Spine
		{
			OFFSET -0.087000 1.940000 -0.288900
			CHANNELS 3 Zrotation Yrotation Xrotation
			JOINT Spine1
			{
				OFFSET 0.000000 1.950000 0.060000
				CHANNELS 3 Zrotation Yrotation Xrotation
				JOINT Neck
				{
					OFFSET 0.000000 0.000000 0.000000
					CHANNELS 3 Zrotation Yrotation Xrotation
					JOINT Neck1
					{
						OFFSET 0.000000 1.600000 0.340000
						CHANNELS 3 Zrotation Yrotation Xrotation
						JOINT Head
						{
							OFFSET 0.000000 1.667000 -0.240000
							CHANNELS 3 Zrotation Yrotation Xrotation
							End Site
							{
								OFFSET 0.000000 0.000000 0.000000
							}
						}
					}
				}
				JOINT LeftShoulder
				{
					OFFSET 0.000000 0.000000 0.000000
					CHANNELS 3 Zrotation Yrotation Xrotation
					JOINT LeftArm
					{
						OFFSET 2.700000 1.550000 -0.730000
						CHANNELS 3 Zrotation Yrotation Xrotation
						JOINT LeftForeArm
						{
							OFFSET 5.450000 0.000000 0.000000
							CHANNELS 3 Zrotation Yrotation Xrotation
							JOINT LeftHand
							{
								OFFSET 3.450000 0.000000 0.000000
								CHANNELS 3 Zrotation Yrotation Xrotation
								JOINT LeftHandIndex1
								{
									OFFSET 0.750000 0.000000 0.000000
									CHANNELS 3 Zrotation Yrotation Xrotation
									End Site
									{
										OFFSET 0.000000 0.000000 0.000000
									}
								}
							}
						}
					}
				}
				JOINT RightShoulder
				{
					OFFSET 0.000000 0.000000 0.000000
					CHANNELS 3 Zrotation Yrotation Xrotation
					JOINT RightArm
					{
						OFFSET -2.700000 1.550000 -0.730000
						CHANNELS 3 Zrotation Yrotation Xrotation
						JOINT RightForeArm
						{
							OFFSET -5.450000 0.000000 0.000000
							CHANNELS 3 Zrotation Yrotation Xrotation
							JOINT RightHand
							{
								OFFSET -3.450000 0.000000 0.000000
								CHANNELS 3 Zrotation Yrotation Xrotation
								JOINT RightHandIndex1
								{
									OFFSET -0.750000 0.000000 0.000000
									CHANNELS 3 Zrotation Yrotation Xrotation
									End Site
									{
										OFFSET 0.000000 0.000000 0.000000
									}
								}
							}
						}
					}
				}
			}
		}
	}
}
MOTION
Frames: 8
Frame Time: 0.016667
-0.434840 17.427520 -4.145760 -0.850029 10.646945 -6.219082 -13.951535 11.048880 2.511592 -0.383910 -1.920253 -10.831393 -9.048931 5.921975 15.668710 -0.756091 3.655017 3.169553 0.855540 0.958310 0.305220 19.492990 -12.681403 3.272956 -8.138707 4.487465 -15.833005 17.917622 -11.156487 30.088990 -1.035604 -6.083869 1.925633 0.666460 0.063340 0.088340 -7.291836 5.190970 -8.154303 30.194836 -6.583005 26.817652 -19.007903 -1.013594 29.581532 4.085898 -10.036632 -11.136641 -15.994800 5.086478 42.440309 11.661030 -6.511730 -33.101150 -2.519946 -25.934171 8.823876 -27.030718 -10.439088 -14.518240 45.777428 -58.130876 -29.944674 -3.098762 2.603524 0.559980 -0.284890 0.271040 0.199360 -0.894390 34.523306 5.468773 36.523551 60.596191 -2.588840 -25.856607 63.070345 -18.648272 1.632944 -0.267010 -0.018070 0.606220 0.020010 0.027620 
-0.425080 17.416230 -4.128200 -0.416613 11.996125 -6.234812 -13.918476 10.914763 2.503416 -0.605085 -1.844637 -10.105754 -9.708603 6.010614 15.045880 -0.737752 3.711531 3.170357 0.848400 0.957060 0.265290 19.542693 -12.706373 3.286229 -9.089262 4.691688 -16.458093 18.441526 -11.576028 30.995395 -1.042542 -6.311575 1.846436 0.679970 0.110700 0.085650 -7.458800 5.463272 -8.253176 31.066579 -6.647996 26.408280 -20.075094 -1.304763 29.395220 4.443007 -10.526531 -10.645381 -16.552768 5.100830 41.754845 11.973660 -7.482430 -32.157300 -2.241591 -25.535821 9.051995 -25.835598 -10.204807 -12.937133 40.937291 -54.721548 -24.913958 -3.158550 2.757436 0.516160 -0.258500 0.231770 0.220130 -1.619286 34.076892 4.141754 36.179959 61.489743 0.311955 -31.359473 62.192393 -21.217978 1.736398 -0.064067 -0.020960 0.621180 0.029250 0.056250 
-0.415390 17.404150 -4.110720 -0.001429 13.204453 -6.268688 -13.893205 10.797861 2.497496 -0.795871 -1.757659 -9.425931 -10.335900 6.111707 14.529853 -0.715959 3.774423 3.165726 0.841350 0.955740 0.230120 19.582812 -12.723834 3.301271 -9.971991 4.873419 -16.974869 18.917070 -11.977261 31.835470 -1.052213 -6.526413 1.771907 0.690510 0.151050 0.083940 -7.598552 5.694387 -8.348312 31.798381 -6.645074 26.089915 -20.993458 -1.516474 29.195840 4.800098 -10.954462 -10.215524 -17.032186 5.056318 41.229898 12.197870 -8.338080 -31.327480 -2.116713 -25.322335 9.337028 -24.608676 -10.046816 -11.423468 37.229921 -51.283368 -20.972060 -3.214654 2.868768 0.477000 -0.235540 0.198150 0.237890 -2.212228 33.787390 2.860689 35.688414 62.027109 2.983394 -36.243742 60.973604 -23.485958 1.859009 0.094603 -0.022110 0.632440 0.036980 0.081720 
-0.405500 17.391790 -4.093540 0.385724 14.288355 -6.310863 -13.878090 10.697369 2.489886 -0.962789 -1.660823 -8.798915 -10.885026 6.211190 14.106541 -0.693378 3.837392 3.159507 0.831880 0.950580 0.196400 19.612128 -12.733665 3.315449 -10.781408 5.036244 -17.396173 19.350037 -12.358850 32.605758 -1.062443 -6.727372 1.704933 0.696900 0.186380 0.082010 -7.704031 5.886505 -8.428817 32.391657 -6.564899 25.799712 -21.724451 -1.634370 29.013177 5.136904 -11.312889 -9.820892 -17.426616 4.946747 40.878133 12.383620 -9.112910 -30.567030 -2.128221 -25.304414 9.681435 -23.385092 -9.943648 -10.021917 34.269120 -47.939056 -17.819429 -3.263385 2.950587 0.443180 -0.214910 0.167740 0.253230 -2.659087 33.700216 1.633761 35.022073 62.168610 5.293638 -40.399396 59.631273 -25.389438 1.985205 0.200998 -0.023850 0.640830 0.044580 0.103450 
-0.395740 17.380160 -4.076620 0.744315 15.256182 -6.361674 -13.877838 10.611295 2.478876 -1.096117 -1.556329 -8.212055 -11.384470 6.310603 13.738047 -0.668243 3.898917 3.151877 0.823640 0.944780 0.169940 19.627481 -12.733734 3.323332 -11.501140 5.181727 -17.721052 19.721563 -12.708590 33.310571 -1.074044 -6.908886 1.645937 0.699480 0.213850 0.080210 -7.760413 6.038606 -8.479884 32.777411 -6.385486 25.486094 -22.200802 -1.619519 28.920923 5.453341 -11.584217 -9.397444 -17.676271 4.776565 40.640780 12.528110 -9.777480 -29.923090 -2.303407 -25.517215 10.090816 -22.173397 -9.891559 -8.779288 31.904044 -44.701091 -15.275551 -3.299875 3.011775 0.414750 -0.198850 0.142730 0.265280 -2.930891 33.915331 0.429022 34.041958 61.773234 7.001628 -43.835842 58.475241 -26.920500 2.090958 0.254357 -0.023800 0.645550 0.049800 0.121090 
-0.386880 17.368550 -4.060320 1.109046 16.113274 -6.400148 -13.892871 10.539354 2.465347 -1.242104 -1.450171 -7.674317 -11.806863 6.402046 13.429521 -0.641695 3.956053 3.144489 0.814250 0.937050 0.147420 19.628879 -12.721640 3.324238 -12.166834 5.309602 -17.978108 20.048625 -13.028977 33.945988 -1.085888 -7.072511 1.593544 0.698190 0.236160 0.079220 -7.766508 6.146731 -8.496756 32.901565 -6.114199 25.151868 -22.435784 -1.470988 28.922521 5.735178 -11.747310 -8.930998 -17.741518 4.546346 40.468348 12.636400 -10.342330 -29.374420 -2.557089 -25.873846 10.526785 -21.002989 -9.907268 -7.678341 29.942379 -41.588582 -13.174464 -3.326576 3.056225 0.390860 -0.185630 0.122340 0.274260 -3.104514 34.346595 -0.725974 32.814211 60.965325 8.125385 -46.747029 57.598354 -28.179327 2.163530 0.260769 -0.022800 0.647700 0.054510 0.135860 
-0.379110 17.357510 -4.044600 1.464090 16.887536 -6.438516 -13.918124 10.483203 2.450550 -1.388930 -1.344668 -7.177783 -12.147553 6.481053 13.170849 -0.615373 4.009235 3.137508 0.805520 0.927860 0.129790 19.620269 -12.699392 3.319376 -12.770984 5.416884 -18.156387 20.335375 -13.318977 34.506615 -1.099229 -7.218063 1.546917 0.694400 0.253390 0.080690 -7.738200 6.210025 -8.489302 32.828834 -5.804009 24.836659 -22.486769 -1.240722 29.005262 5.989988 -11.804979 -8.483843 -17.642574 4.277330 40.353043 12.704110 -10.810970 -28.915130 -2.823242 -26.339955 10.978419 -19.912277 -9.961298 -6.707980 28.296199 -38.607414 -11.433572 -3.346594 3.089324 0.372600 -0.175290 0.107520 0.281780 -3.256447 34.913524 -1.775038 31.448335 59.958675 8.724221 -49.239529 56.915362 -29.239854 2.219774 0.224067 -0.021070 0.647580 0.058110 0.147390 
-0.371820 17.347430 -4.029720 1.791207 17.574229 -6.477586 -13.948036 10.441136 2.436345 -1.529013 -1.241423 -6.719882 -12.413927 6.545880 12.944067 -0.592417 4.055057 3.130637 0.797820 0.918870 0.117490 19.606388 -12.671548 3.310168 -13.295555 5.508799 -18.282779 20.552293 -13.568733 35.014943 -1.110962 -7.343072 1.508183 0.689770 0.265490 0.080970 -7.692378 6.240393 -8.464082 32.660272 -5.508853 24.561708 -22.475890 -0.979130 29.116207 6.219082 -11.778610 -8.076885 -17.441540 4.001548 40.276220 12.752990 -11.192860 -28.567610 -3.100985 -26.793239 11.382034 -18.876546 -10.077814 -5.828834 26.833878 -35.779120 -9.958790 -3.363229 3.109886 0.359660 -0.167920 0.096300 0.286370 -3.401262 35.468650 -2.680415 30.109092 58.955329 8.937912 -51.249899 56.443509 -30.102846 2.263520 0.157061 -0.020280 0.647060 0.060650 0.155260 
